Title                            : Stone
Year                             : 2010
Genre                            : Drama | Thriller
iMDB URL                         : http://www.imdb.com/title/tt1423995/

Complete name                    : Stone.2010.BRRIP.720P.H264-ZEKTORM.mp4
Format                           : MPEG-4
Format profile                   : Base Media
Codec ID                         : isom
File size                        : 2.05 GiB
Duration                         : 1h 45mn
Overall bit rate                 : 2790 Kbps
Subtitles                        : English (Format: srt)

Video
ID                               : 1
Format                           : AVC
Format/Info                      : Advanced Video Codec
Format profile                   : High@L4.0
Format settings, CABAC           : Yes
Format settings, ReFrames        : 5 frames
Codec ID                         : avc1
Codec ID/Info                    : Advanced Video Coding
Duration                         : 1h 45mn
Bit rate mode                    : Variable
Bit rate                         : 2 609 Kbps
Maximum bit rate                 : 16.3 Mbps
Width                            : 1280 pixels
Height                           : 528 pixels
Display aspect ratio             : 2.424
Frame rate mode                  : Constant
Frame rate                       : 23.976 fps
Resolution                       : 24 bits
Colorimetry                      : 4:2:0
Scan type                        : Progressive
Bits/(Pixel*Frame)               : 0.161
Stream size                      : 1.91 GiB (93%)
Title                            : Video
Writing library                  : x264

Audio
ID                               : 2
Format                           : AAC
Format/Info                      : Advanced Audio Codec
Format version                   : Version 4
Format profile                   : LC
Format settings, SBR             : No
Codec ID                         : 40
Duration                         : 1h 45mn
Bit rate mode                    : Variable
Bit rate                         : 184 Kbps
Maximum bit rate                 : 225 Kbps
Channel(s)                       : 6 channels
Channel positions                : Front: L C R, Rear: L R, LFE
Sampling rate                    : 48.0 KHz
Resolution                       : 16 bits
Stream size                      : 138 MiB (7%)
Language                         : English


Screenshots:
 
http://img214.imageshack.us/img214/6822/snapst1.png
 
http://img839.imageshack.us/img839/3083/snapst2.png
 
http://img255.imageshack.us/img255/8128/snapst3.png
 
http://img259.imageshack.us/img259/6227/snapst4.png
